<svg width="363" height="169" viewBox="0 0 363 169" fill="none" xmlns="http://www.w3.org/2000/svg">
<rect x="5.18669" y="76.648" width="342" height="89" rx="44.5" transform="rotate(-12.1331 5.18669 76.648)" fill="#D8F1FF"/>
<rect x="5.18669" y="76.648" width="342" height="89" rx="44.5" transform="rotate(-12.1331 5.18669 76.648)" stroke="#64748B" stroke-width="8"/>
<path d="M68.707 119.248L64.4402 99.402L72.6057 97.6465C73.8532 97.3783 75.0043 97.3978 76.0591 97.705C77.1287 97.9892 78.0257 98.528 78.75 99.3215C79.4932 100.111 79.9989 101.129 80.2671 102.377L80.3524 102.774C80.6165 104.002 80.5646 105.141 80.1967 106.189C79.8436 107.214 79.2399 108.085 78.3857 108.803C77.5462 109.497 76.5217 109.975 75.312 110.235L70.8891 111.186L72.4495 118.444L68.707 119.248ZM70.1576 107.783L74.212 106.912C75.1003 106.721 75.7658 106.321 76.2083 105.711C76.6508 105.102 76.7806 104.372 76.5977 103.522L76.5368 103.238C76.3539 102.388 75.9356 101.776 75.2818 101.402C74.628 101.028 73.8569 100.937 72.9685 101.128L68.9142 102L70.1576 107.783ZM85.9314 115.545L81.6646 95.699L85.237 94.9309L89.5037 114.777L85.9314 115.545ZM97.914 113.385C96.9122 113.6 95.9778 113.623 95.1108 113.453C94.2397 113.265 93.4968 112.891 92.8821 112.331C92.2822 111.748 91.8786 110.974 91.6713 110.01C91.4641 109.046 91.5182 108.194 91.8337 107.454C92.164 106.691 92.701 106.061 93.4447 105.565C94.2032 105.046 95.1117 104.673 96.1702 104.446L100.026 103.617L99.8554 102.823C99.7132 102.161 99.3894 101.667 98.8842 101.341C98.3749 100.995 97.6666 100.92 96.7594 101.115C95.871 101.306 95.2542 101.656 94.9088 102.166C94.5594 102.656 94.3876 103.237 94.3935 103.908L90.8669 103.509C90.9393 102.742 91.1583 102.013 91.5237 101.321C91.904 100.607 92.4714 99.9805 93.2259 99.4426C93.9952 98.8817 94.9847 98.4712 96.1944 98.2112C98.0467 97.8129 99.6111 97.9611 100.888 98.6556C102.164 99.3502 102.991 100.576 103.369 102.334L104.497 107.579C104.619 108.146 104.944 108.373 105.474 108.259L106.608 108.015L107.242 110.964L104.86 111.476C104.161 111.626 103.548 111.58 103.021 111.338C102.494 111.095 102.17 110.69 102.048 110.123L102.042 110.095L101.503 110.21C101.476 110.453 101.371 110.792 101.188 111.227C101 111.643 100.654 112.054 100.147 112.46C99.6414 112.865 98.8969 113.173 97.914 113.385ZM97.916 110.359C98.9178 110.143 99.6716 109.694 100.178 109.012C100.698 108.307 100.859 107.491 100.66 106.565L100.599 106.282L96.9983 107.056C96.3368 107.198 95.8474 107.451 95.5304 107.816C95.2133 108.181 95.1096 108.619 95.2193 109.129C95.329 109.639 95.6169 110.012 96.0829 110.248C96.5489 110.484 97.16 110.521 97.916 110.359ZM114.216 109.465C113.29 109.664 112.473 109.543 111.765 109.102C111.072 108.638 110.622 107.924 110.415 106.96L108.708 99.0211L105.192 99.7769L104.558 96.8283L108.074 96.0725L107.135 91.7062L110.708 90.9382L111.646 95.3045L115.502 94.4755L116.136 97.4241L112.28 98.2531L113.853 105.568C113.975 106.135 114.3 106.362 114.83 106.248L117.551 105.663L118.185 108.611L114.216 109.465ZM123.392 107.492L121.003 96.3779L117.43 97.1459L116.796 94.1973L120.369 93.4293L119.808 90.8209C119.601 89.8569 119.72 89.0305 120.165 88.3415C120.625 87.6296 121.318 87.1741 122.244 86.975L125.93 86.1826L126.564 89.1312L124.125 89.6554C123.596 89.7692 123.392 90.1096 123.514 90.6766L123.941 92.6613L127.627 91.8689L128.261 94.8175L124.575 95.6099L126.964 106.724L123.392 107.492ZM139.722 104.397C138.323 104.697 137.005 104.684 135.768 104.357C134.531 104.029 133.475 103.396 132.601 102.457C131.726 101.518 131.127 100.292 130.802 98.7799L130.704 98.3263C130.379 96.8142 130.422 95.4504 130.833 94.2348C131.244 93.0193 131.946 92.0081 132.94 91.2013C133.933 90.3945 135.129 89.8408 136.528 89.5401C137.926 89.2394 139.244 89.2527 140.481 89.58C141.718 89.9073 142.774 90.5405 143.648 91.4797C144.523 92.419 145.122 93.6446 145.447 95.1567L145.545 95.6104C145.87 97.1225 145.827 98.4863 145.416 99.7019C145.005 100.917 144.303 101.929 143.309 102.735C142.316 103.542 141.12 104.096 139.722 104.397ZM139.039 101.221C140.135 100.985 140.967 100.441 141.535 99.587C142.099 98.7143 142.239 97.6164 141.954 96.2933L141.893 96.0098C141.609 94.6867 141.032 93.7527 140.164 93.2077C139.31 92.6398 138.325 92.4758 137.21 92.7155C136.114 92.9512 135.284 93.5054 134.72 94.3781C134.152 95.2318 134.01 96.3203 134.295 97.6434L134.356 97.9269C134.64 99.25 135.219 100.193 136.091 100.757C136.96 101.302 137.943 101.457 139.039 101.221ZM150.305 101.706L147.282 87.6433L150.798 86.8875L151.139 88.4752L151.649 88.3655C151.735 87.7537 151.986 87.2648 152.402 86.8986C152.836 86.5283 153.375 86.2741 154.018 86.1359L155.719 85.7702L156.401 88.9456L154.644 89.3235C153.736 89.5186 153.043 89.9248 152.562 90.5422C152.078 91.1407 151.943 91.9409 152.159 92.9427L153.878 100.938L150.305 101.706ZM161.546 99.2893L158.523 85.2266L162.039 84.4708L162.368 86.0018L162.878 85.8921C163.022 85.3667 163.341 84.873 163.835 84.4108C164.325 83.9298 165.033 83.5897 165.959 83.3906C166.961 83.1752 167.807 83.201 168.497 83.4679C169.183 83.7159 169.754 84.1172 170.21 84.6719L170.72 84.5622C170.911 83.8883 171.257 83.2898 171.758 82.7669C172.258 82.244 173.047 81.8668 174.125 81.6352C174.994 81.4482 175.819 81.4686 176.6 81.6963C177.395 81.901 178.082 82.3367 178.661 83.0033C179.254 83.647 179.672 84.5359 179.916 85.67L181.903 94.9128L178.331 95.6808L176.399 86.6932C176.232 85.9182 175.91 85.3844 175.432 85.0917C174.949 84.7801 174.349 84.7015 173.631 84.8559C172.818 85.0307 172.242 85.4314 171.902 86.0582C171.577 86.662 171.518 87.4459 171.725 88.4099L173.511 96.7171L169.939 97.4851L168.006 88.4974C167.84 87.7225 167.517 87.1886 167.039 86.8959C166.557 86.5843 165.957 86.5057 165.238 86.6602C164.426 86.8349 163.849 87.2356 163.51 87.8624C163.185 88.4662 163.126 89.2501 163.333 90.2141L165.119 98.5213L161.546 99.2893ZM190.197 93.5451C189.195 93.7604 188.261 93.7833 187.394 93.6138C186.523 93.4253 185.78 93.0511 185.165 92.4912C184.565 91.9082 184.162 91.1348 183.954 90.1708C183.747 89.2068 183.801 88.3548 184.117 87.6146C184.447 86.8514 184.984 86.2218 185.728 85.7258C186.486 85.2068 187.395 84.8335 188.453 84.6059L192.309 83.7769L192.138 82.9831C191.996 82.3215 191.673 81.8275 191.167 81.5011C190.658 81.1558 189.95 81.0806 189.042 81.2757C188.154 81.4667 187.537 81.8168 187.192 82.3261C186.842 82.8165 186.671 83.3972 186.677 84.0683L183.15 83.6697C183.222 82.9026 183.441 82.1733 183.807 81.4817C184.187 80.7672 184.754 80.1409 185.509 79.603C186.278 79.0421 187.268 78.6316 188.477 78.3716C190.33 77.9733 191.894 78.1215 193.171 78.816C194.447 79.5106 195.274 80.7368 195.652 82.4946L196.78 87.7398C196.902 88.3068 197.227 88.5335 197.757 88.4197L198.891 88.1759L199.525 91.1245L197.143 91.6365C196.444 91.7868 195.831 91.7407 195.304 91.498C194.777 91.2553 194.453 90.8504 194.331 90.2834L194.325 90.255L193.786 90.3708C193.759 90.6139 193.654 90.9529 193.471 91.3878C193.283 91.8038 192.937 92.2145 192.431 92.62C191.924 93.0254 191.18 93.3338 190.197 93.5451ZM190.199 90.519C191.201 90.3037 191.955 89.8549 192.461 89.1726C192.981 88.4674 193.142 87.6517 192.943 86.7256L192.882 86.442L189.281 87.2162C188.62 87.3584 188.13 87.6119 187.813 87.9767C187.496 88.3415 187.393 88.779 187.502 89.2894C187.612 89.7997 187.9 90.1729 188.366 90.4089C188.832 90.6449 189.443 90.6816 190.199 90.519ZM209.335 89.0153L205.069 69.1688L208.641 68.4008L210.256 75.9141L210.767 75.8044C210.853 75.4694 211.024 75.1162 211.28 74.7447C211.537 74.3732 211.909 74.0361 212.398 73.7333C212.901 73.4075 213.569 73.1552 214.4 72.9764C215.497 72.7408 216.506 72.7907 217.429 73.1263C218.366 73.439 219.157 73.9907 219.801 74.7816C220.442 75.5535 220.888 76.5254 221.14 77.6973L222.944 86.0896L219.372 86.8576L217.629 78.7488C217.401 77.6904 216.966 76.9534 216.323 76.5379C215.699 76.1184 214.905 76.0123 213.941 76.2195C212.845 76.4552 212.073 77.0066 211.627 77.8738C211.176 78.7221 211.091 79.7983 211.372 81.1025L212.908 88.2473L209.335 89.0153ZM231.258 84.7175C230.256 84.9329 229.322 84.9558 228.455 84.7863C227.584 84.5978 226.841 84.2236 226.226 83.6636C225.626 83.0807 225.222 82.3073 225.015 81.3433C224.808 80.3793 224.862 79.5272 225.178 78.7871C225.508 78.0239 226.045 77.3943 226.789 76.8983C227.547 76.3792 228.456 76.0059 229.514 75.7784L233.37 74.9494L233.199 74.1556C233.057 73.494 232.733 73 232.228 72.6736C231.719 72.3282 231.011 72.2531 230.103 72.4482C229.215 72.6391 228.598 72.9893 228.253 73.4986C227.903 73.989 227.732 74.5697 227.737 75.2408L224.211 74.8421C224.283 74.0751 224.502 73.3458 224.868 72.6542C225.248 71.9396 225.815 71.3134 226.57 70.7755C227.339 70.2146 228.329 69.8041 229.538 69.544C231.391 69.1458 232.955 69.294 234.232 69.9885C235.508 70.6831 236.335 71.9093 236.713 73.6671L237.841 78.9123C237.963 79.4793 238.288 79.7059 238.817 79.5922L239.952 79.3483L240.585 82.297L238.204 82.809C237.505 82.9593 236.891 82.9132 236.365 82.6705C235.838 82.4278 235.514 82.0229 235.392 81.4558L235.386 81.4275L234.847 81.5433C234.82 81.7864 234.715 82.1254 234.532 82.5603C234.344 82.9763 233.997 83.387 233.491 83.7924C232.985 84.1979 232.241 84.5062 231.258 84.7175ZM231.26 81.6915C232.262 81.4762 233.016 81.0274 233.521 80.3451C234.042 79.6399 234.203 78.8242 234.004 77.8981L233.943 77.6145L230.342 78.3886C229.681 78.5309 229.191 78.7844 228.874 79.1492C228.557 79.514 228.454 79.9515 228.563 80.4619C228.673 80.9722 228.961 81.3454 229.427 81.5814C229.893 81.8173 230.504 81.8541 231.26 81.6915ZM254.687 85.1979L253.12 77.9114L252.61 78.0211C252.49 78.3831 252.285 78.7633 251.995 79.1619C251.701 79.5415 251.281 79.8888 250.736 80.2038C250.213 80.5336 249.527 80.79 248.676 80.9728C247.542 81.2166 246.434 81.1681 245.352 80.8272C244.267 80.4674 243.315 79.8118 242.497 78.8604C241.68 77.909 241.106 76.6677 240.777 75.1367L240.68 74.6831C240.351 73.1521 240.363 71.7849 240.717 70.5815C241.072 69.3782 241.672 68.3988 242.518 67.6434C243.379 66.8651 244.367 66.356 245.482 66.1163C246.768 65.84 247.788 65.848 248.543 66.1406C249.313 66.4101 249.917 66.7844 250.356 67.2635L250.867 67.1537L250.501 65.4526L254.017 64.6968L258.259 84.4299L254.687 85.1979ZM249.083 77.6225C250.198 77.3827 251.04 76.836 251.608 75.9822C252.191 75.1054 252.336 73.9866 252.043 72.6257L251.982 72.3422C251.69 70.9813 251.1 70.0304 250.212 69.4895C249.32 68.9298 248.327 68.7677 247.23 69.0034C246.134 69.2391 245.294 69.7953 244.712 70.672C244.125 71.5299 243.978 72.6392 244.27 74.0001L244.331 74.2837C244.624 75.6446 245.216 76.6049 246.108 77.1647C246.995 77.7056 247.987 77.8581 249.083 77.6225ZM261.001 77.908L257.977 63.8453L261.55 63.0773L264.573 77.14L261.001 77.908ZM259.41 61.8169C258.767 61.955 258.174 61.865 257.631 61.5467C257.107 61.2243 256.772 60.7229 256.626 60.0424C256.48 59.362 256.579 58.7671 256.924 58.2578C257.289 57.7444 257.792 57.4187 258.435 57.2805C259.096 57.1383 259.689 57.2284 260.213 57.5507C260.737 57.8731 261.073 58.3745 261.219 59.055C261.365 59.7354 261.266 60.3303 260.92 60.8396C260.575 61.3489 260.072 61.6746 259.41 61.8169ZM274.287 75.4668C273.172 75.7065 272.064 75.658 270.964 75.3212C269.878 74.9614 268.926 74.3057 268.108 73.3543C267.291 72.4029 266.717 71.1617 266.388 69.6307L266.291 69.177C265.962 67.646 265.974 66.2788 266.329 65.0755C266.683 63.8721 267.283 62.8928 268.129 62.1374C268.971 61.3631 269.959 60.854 271.093 60.6102C271.944 60.4274 272.675 60.379 273.287 60.465C273.914 60.528 274.439 60.6721 274.863 60.8974C275.287 61.1226 275.63 61.385 275.892 61.6846L276.403 61.5748L274.812 54.1749L278.384 53.4069L282.651 73.2534L279.135 74.0093L278.77 72.3081L278.259 72.4179C278.052 73.0162 277.655 73.6058 277.068 74.1869C276.499 74.7638 275.573 75.1905 274.287 75.4668ZM274.694 72.1164C275.791 71.8807 276.632 71.334 277.219 70.4761C277.802 69.5994 277.947 68.4806 277.654 67.1197L277.593 66.8362C277.301 65.4753 276.711 64.5244 275.823 63.9835C274.95 63.4197 273.957 63.2576 272.841 63.4974C271.745 63.733 270.906 64.2893 270.323 65.166C269.736 66.0238 269.589 67.1332 269.881 68.4941L269.942 68.7776C270.235 70.1385 270.827 71.0989 271.719 71.6586C272.606 72.1995 273.598 72.3521 274.694 72.1164ZM291.063 71.8602C290.062 72.0756 289.127 72.0985 288.26 71.9289C287.389 71.7405 286.646 71.3663 286.031 70.8063C285.431 70.2234 285.028 69.4499 284.821 68.4859C284.613 67.522 284.668 66.6699 284.983 65.9297C285.313 65.1666 285.85 64.537 286.594 64.0409C287.352 63.5219 288.261 63.1486 289.319 62.921L293.175 62.0921L293.005 61.2982C292.862 60.6367 292.539 60.1427 292.034 59.8162C291.524 59.4709 290.816 59.3958 289.909 59.5908C289.02 59.7818 288.403 60.1319 288.058 60.6412C287.709 61.1316 287.537 61.7124 287.543 62.3835L284.016 61.9848C284.089 61.2178 284.308 60.4885 284.673 59.7969C285.053 59.0823 285.621 58.4561 286.375 57.9181C287.144 57.3572 288.134 56.9468 289.344 56.6867C291.196 56.2885 292.76 56.4366 294.037 57.1312C295.313 57.8257 296.141 59.0519 296.519 60.8098L297.646 66.0549C297.768 66.622 298.094 66.8486 298.623 66.7348L299.757 66.491L300.391 69.4396L298.009 69.9516C297.31 70.102 296.697 70.0558 296.17 69.8131C295.643 69.5704 295.319 69.1655 295.197 68.5985L295.191 68.5701L294.652 68.6859C294.625 68.929 294.52 69.268 294.337 69.7029C294.15 70.119 293.803 70.5297 293.297 70.9351C292.791 71.3405 292.046 71.6489 291.063 71.8602ZM291.065 68.8342C292.067 68.6188 292.821 68.17 293.327 67.4878C293.848 66.7826 294.008 65.9669 293.809 65.0407L293.748 64.7572L290.148 65.5313C289.486 65.6735 288.997 65.927 288.68 66.2918C288.363 66.6566 288.259 67.0942 288.369 67.6045C288.478 68.1149 288.766 68.488 289.232 68.724C289.698 68.96 290.309 68.9967 291.065 68.8342Z" fill="#41526A"/>
</svg>
